<mxfile host="65bd71144e" pages="6">
    <diagram id="BClQ7zJKGYlsGDlJx-q2" name="0.0.2">
        <mxGraphModel dx="1074" dy="790" grid="1" gridSize="10" guides="1" tooltips="1" connect="1" arrows="1" fold="1" page="1" pageScale="1" pageWidth="1169" pageHeight="827" math="0" shadow="0">
            <root>
                <mxCell id="0"/>
                <mxCell id="1" parent="0"/>
                <mxCell id="0XDa8BmgBY2-rIkM7C-t-5" value="" style="rounded=1;whiteSpace=wrap;html=1;fillColor=none;strokeColor=#808080;fontColor=#808080;fontFamily=Lucida Console;fontStyle=0" parent="1" vertex="1">
                    <mxGeometry x="210" y="260" width="760" height="297" as="geometry"/>
                </mxCell>
                <mxCell id="gQmo-Lvj3IdOfGqod0C0-8" style="edgeStyle=orthogonalEdgeStyle;rounded=0;orthogonalLoop=1;jettySize=auto;html=1;strokeColor=#808080;fontColor=#808080;fontFamily=Lucida Console;fontStyle=0" parent="1" source="5" target="gQmo-Lvj3IdOfGqod0C0-6" edge="1">
                    <mxGeometry relative="1" as="geometry"/>
                </mxCell>
                <mxCell id="5" value="ESPOSIZIONE" style="ellipse;whiteSpace=wrap;html=1;aspect=fixed;sketch=1;fontFamily=Lucida Console;fontSize=25;fillColor=#0050ef;strokeColor=#808080;fontColor=#808080;fontStyle=0" parent="1" vertex="1">
                    <mxGeometry x="220" y="323.5" width="190" height="190" as="geometry"/>
                </mxCell>
                <mxCell id="gQmo-Lvj3IdOfGqod0C0-9" style="edgeStyle=orthogonalEdgeStyle;rounded=0;orthogonalLoop=1;jettySize=auto;html=1;strokeColor=#808080;fontColor=#808080;fontFamily=Lucida Console;fontStyle=0" parent="1" source="gQmo-Lvj3IdOfGqod0C0-6" target="gQmo-Lvj3IdOfGqod0C0-7" edge="1">
                    <mxGeometry relative="1" as="geometry"/>
                </mxCell>
                <mxCell id="gQmo-Lvj3IdOfGqod0C0-6" value="SCOPO" style="ellipse;whiteSpace=wrap;html=1;aspect=fixed;sketch=1;fontFamily=Lucida Console;fontSize=25;fillColor=#008a00;strokeColor=#808080;fontColor=#808080;fontStyle=0" parent="1" vertex="1">
                    <mxGeometry x="490" y="323.5" width="190" height="190" as="geometry"/>
                </mxCell>
                <mxCell id="gQmo-Lvj3IdOfGqod0C0-7" value="DIPENDENZA" style="ellipse;whiteSpace=wrap;html=1;aspect=fixed;sketch=1;fontFamily=Lucida Console;fontSize=25;fillColor=#a20025;spacing=2;strokeColor=#808080;fontColor=#808080;fontStyle=0" parent="1" vertex="1">
                    <mxGeometry x="770" y="323.5" width="190" height="190" as="geometry"/>
                </mxCell>
                <mxCell id="0XDa8BmgBY2-rIkM7C-t-6" value="SISTEMA" style="text;html=1;fillColor=none;align=center;verticalAlign=middle;whiteSpace=wrap;rounded=0;fontColor=#808080;fontFamily=Lucida Console;fontStyle=0;fontSize=25;" parent="1" vertex="1">
                    <mxGeometry x="570" y="270" width="40" height="20" as="geometry"/>
                </mxCell>
            </root>
        </mxGraphModel>
    </diagram>
    <diagram id="nKiVWEsSA-270ExTul0f" name="0.0.3">
        <mxGraphModel dx="1074" dy="790" grid="1" gridSize="10" guides="0" tooltips="1" connect="1" arrows="1" fold="1" page="1" pageScale="1" pageWidth="1100" pageHeight="850" math="0" shadow="0">
            <root>
                <mxCell id="W0rM-MDbJ5D4AVO0Bxm_-0"/>
                <mxCell id="W0rM-MDbJ5D4AVO0Bxm_-1" parent="W0rM-MDbJ5D4AVO0Bxm_-0"/>
                <mxCell id="W0rM-MDbJ5D4AVO0Bxm_-2" value="" style="shape=image;verticalLabelPosition=bottom;labelBackgroundColor=#ffffff;verticalAlign=top;aspect=fixed;imageAspect=0;image=https://cdn-icons-png.flaticon.com/512/869/869869.png;strokeColor=#808080;rounded=1;sketch=1;" parent="W0rM-MDbJ5D4AVO0Bxm_-1" vertex="1">
                    <mxGeometry x="860" y="251" width="162" height="162" as="geometry"/>
                </mxCell>
                <mxCell id="W0rM-MDbJ5D4AVO0Bxm_-3" value="" style="shape=image;verticalLabelPosition=bottom;labelBackgroundColor=#ffffff;verticalAlign=top;aspect=fixed;imageAspect=0;image=https://cdn-icons-png.flaticon.com/512/704/704834.png;strokeColor=#808080;rounded=1;sketch=1;" parent="W0rM-MDbJ5D4AVO0Bxm_-1" vertex="1">
                    <mxGeometry x="650" y="256" width="140" height="140" as="geometry"/>
                </mxCell>
                <mxCell id="W0rM-MDbJ5D4AVO0Bxm_-5" value="" style="shape=image;verticalLabelPosition=bottom;labelBackgroundColor=#ffffff;verticalAlign=top;aspect=fixed;imageAspect=0;image=https://cdn-icons-png.flaticon.com/512/4982/4982460.png;strokeColor=#808080;rounded=1;sketch=1;" parent="W0rM-MDbJ5D4AVO0Bxm_-1" vertex="1">
                    <mxGeometry x="450" y="267" width="130" height="130" as="geometry"/>
                </mxCell>
                <mxCell id="W0rM-MDbJ5D4AVO0Bxm_-11" value="" style="shape=image;verticalLabelPosition=bottom;labelBackgroundColor=#ffffff;verticalAlign=top;aspect=fixed;imageAspect=0;image=https://cdn-icons-png.flaticon.com/512/4983/4983285.png;strokeColor=#808080;rounded=1;sketch=1;" parent="W0rM-MDbJ5D4AVO0Bxm_-1" vertex="1">
                    <mxGeometry x="270" y="270" width="112" height="112" as="geometry"/>
                </mxCell>
                <mxCell id="W0rM-MDbJ5D4AVO0Bxm_-13" value="" style="shape=image;verticalLabelPosition=bottom;labelBackgroundColor=#ffffff;verticalAlign=top;aspect=fixed;imageAspect=0;image=https://cdn-icons-png.flaticon.com/512/1447/1447825.png;strokeColor=#808080;rounded=1;sketch=1;" parent="W0rM-MDbJ5D4AVO0Bxm_-1" vertex="1">
                    <mxGeometry x="80" y="250" width="122" height="122" as="geometry"/>
                </mxCell>
                <mxCell id="W0rM-MDbJ5D4AVO0Bxm_-14" value="D" style="whiteSpace=wrap;html=1;strokeColor=#6F0000;fillColor=#a20025;fontFamily=Courier New;fontColor=#808080;fontStyle=1;rounded=1;sketch=1;" parent="W0rM-MDbJ5D4AVO0Bxm_-1" vertex="1">
                    <mxGeometry x="960" y="470" width="40" height="160" as="geometry"/>
                </mxCell>
                <mxCell id="W0rM-MDbJ5D4AVO0Bxm_-15" value="S" style="whiteSpace=wrap;html=1;strokeColor=#005700;fillColor=#008a00;fontFamily=Courier New;fontColor=#808080;fontStyle=1;rounded=1;sketch=1;" parent="W0rM-MDbJ5D4AVO0Bxm_-1" vertex="1">
                    <mxGeometry x="920" y="470" width="40" height="160" as="geometry"/>
                </mxCell>
                <mxCell id="W0rM-MDbJ5D4AVO0Bxm_-16" value="E" style="whiteSpace=wrap;html=1;strokeColor=#001DBC;fillColor=#0050ef;fontFamily=Courier New;fontColor=#808080;fontStyle=1;rounded=1;sketch=1;" parent="W0rM-MDbJ5D4AVO0Bxm_-1" vertex="1">
                    <mxGeometry x="880" y="470" width="40" height="160" as="geometry"/>
                </mxCell>
                <mxCell id="W0rM-MDbJ5D4AVO0Bxm_-32" style="edgeStyle=orthogonalEdgeStyle;orthogonalLoop=1;jettySize=auto;html=1;strokeColor=#808080;fontFamily=Courier New;fontColor=#808080;fontStyle=1;curved=1;sketch=1;" parent="W0rM-MDbJ5D4AVO0Bxm_-1" source="W0rM-MDbJ5D4AVO0Bxm_-17" target="W0rM-MDbJ5D4AVO0Bxm_-16" edge="1">
                    <mxGeometry relative="1" as="geometry"/>
                </mxCell>
                <mxCell id="W0rM-MDbJ5D4AVO0Bxm_-17" value="D" style="whiteSpace=wrap;html=1;strokeColor=#6F0000;fillColor=#a20025;fontFamily=Courier New;fontColor=#808080;fontStyle=1;rounded=1;sketch=1;" parent="W0rM-MDbJ5D4AVO0Bxm_-1" vertex="1">
                    <mxGeometry x="740" y="470" width="40" height="160" as="geometry"/>
                </mxCell>
                <mxCell id="W0rM-MDbJ5D4AVO0Bxm_-18" value="S" style="whiteSpace=wrap;html=1;strokeColor=#005700;fillColor=#008a00;fontFamily=Courier New;fontColor=#808080;fontStyle=1;rounded=1;sketch=1;" parent="W0rM-MDbJ5D4AVO0Bxm_-1" vertex="1">
                    <mxGeometry x="700" y="470" width="40" height="160" as="geometry"/>
                </mxCell>
                <mxCell id="W0rM-MDbJ5D4AVO0Bxm_-19" value="E" style="whiteSpace=wrap;html=1;strokeColor=#001DBC;fillColor=#0050ef;fontFamily=Courier New;fontColor=#808080;fontStyle=1;rounded=1;sketch=1;" parent="W0rM-MDbJ5D4AVO0Bxm_-1" vertex="1">
                    <mxGeometry x="660" y="470" width="40" height="160" as="geometry"/>
                </mxCell>
                <mxCell id="W0rM-MDbJ5D4AVO0Bxm_-31" style="edgeStyle=orthogonalEdgeStyle;orthogonalLoop=1;jettySize=auto;html=1;strokeColor=#808080;fontFamily=Courier New;fontColor=#808080;fontStyle=1;curved=1;sketch=1;" parent="W0rM-MDbJ5D4AVO0Bxm_-1" source="W0rM-MDbJ5D4AVO0Bxm_-20" target="W0rM-MDbJ5D4AVO0Bxm_-19" edge="1">
                    <mxGeometry relative="1" as="geometry"/>
                </mxCell>
                <mxCell id="W0rM-MDbJ5D4AVO0Bxm_-20" value="D" style="whiteSpace=wrap;html=1;strokeColor=#6F0000;fillColor=#a20025;fontFamily=Courier New;fontColor=#808080;fontStyle=1;rounded=1;sketch=1;" parent="W0rM-MDbJ5D4AVO0Bxm_-1" vertex="1">
                    <mxGeometry x="540" y="470" width="40" height="160" as="geometry"/>
                </mxCell>
                <mxCell id="W0rM-MDbJ5D4AVO0Bxm_-21" value="S" style="whiteSpace=wrap;html=1;strokeColor=#005700;fillColor=#008a00;fontFamily=Courier New;fontColor=#808080;fontStyle=1;rounded=1;sketch=1;" parent="W0rM-MDbJ5D4AVO0Bxm_-1" vertex="1">
                    <mxGeometry x="500" y="470" width="40" height="160" as="geometry"/>
                </mxCell>
                <mxCell id="W0rM-MDbJ5D4AVO0Bxm_-22" value="E" style="whiteSpace=wrap;html=1;strokeColor=#001DBC;fillColor=#0050ef;fontFamily=Courier New;fontColor=#808080;fontStyle=1;rounded=1;sketch=1;" parent="W0rM-MDbJ5D4AVO0Bxm_-1" vertex="1">
                    <mxGeometry x="460" y="470" width="40" height="160" as="geometry"/>
                </mxCell>
                <mxCell id="W0rM-MDbJ5D4AVO0Bxm_-30" style="edgeStyle=orthogonalEdgeStyle;orthogonalLoop=1;jettySize=auto;html=1;strokeColor=#808080;fontFamily=Courier New;fontColor=#808080;fontStyle=1;curved=1;sketch=1;" parent="W0rM-MDbJ5D4AVO0Bxm_-1" source="W0rM-MDbJ5D4AVO0Bxm_-23" target="W0rM-MDbJ5D4AVO0Bxm_-22" edge="1">
                    <mxGeometry relative="1" as="geometry"/>
                </mxCell>
                <mxCell id="W0rM-MDbJ5D4AVO0Bxm_-23" value="D" style="whiteSpace=wrap;html=1;strokeColor=#6F0000;fillColor=#a20025;fontFamily=Courier New;fontColor=#808080;fontStyle=1;rounded=1;sketch=1;" parent="W0rM-MDbJ5D4AVO0Bxm_-1" vertex="1">
                    <mxGeometry x="350" y="470" width="40" height="160" as="geometry"/>
                </mxCell>
                <mxCell id="W0rM-MDbJ5D4AVO0Bxm_-24" value="S" style="whiteSpace=wrap;html=1;strokeColor=#005700;fillColor=#008a00;fontFamily=Courier New;fontColor=#808080;fontStyle=1;rounded=1;sketch=1;" parent="W0rM-MDbJ5D4AVO0Bxm_-1" vertex="1">
                    <mxGeometry x="310" y="470" width="40" height="160" as="geometry"/>
                </mxCell>
                <mxCell id="W0rM-MDbJ5D4AVO0Bxm_-25" value="E" style="whiteSpace=wrap;html=1;strokeColor=#001DBC;fillColor=#0050ef;fontFamily=Courier New;fontColor=#808080;fontStyle=1;rounded=1;sketch=1;" parent="W0rM-MDbJ5D4AVO0Bxm_-1" vertex="1">
                    <mxGeometry x="270" y="470" width="40" height="160" as="geometry"/>
                </mxCell>
                <mxCell id="W0rM-MDbJ5D4AVO0Bxm_-29" style="edgeStyle=orthogonalEdgeStyle;orthogonalLoop=1;jettySize=auto;html=1;entryX=0;entryY=0.5;entryDx=0;entryDy=0;strokeColor=#808080;fontFamily=Courier New;fontColor=#808080;fontStyle=1;curved=1;sketch=1;" parent="W0rM-MDbJ5D4AVO0Bxm_-1" source="W0rM-MDbJ5D4AVO0Bxm_-26" target="W0rM-MDbJ5D4AVO0Bxm_-25" edge="1">
                    <mxGeometry relative="1" as="geometry"/>
                </mxCell>
                <mxCell id="W0rM-MDbJ5D4AVO0Bxm_-26" value="D" style="whiteSpace=wrap;html=1;strokeColor=#6F0000;fillColor=#a20025;fontFamily=Courier New;fontColor=#808080;fontStyle=1;rounded=1;sketch=1;" parent="W0rM-MDbJ5D4AVO0Bxm_-1" vertex="1">
                    <mxGeometry x="160" y="470" width="40" height="160" as="geometry"/>
                </mxCell>
                <mxCell id="W0rM-MDbJ5D4AVO0Bxm_-27" value="S" style="whiteSpace=wrap;html=1;strokeColor=#005700;fillColor=#008a00;fontFamily=Courier New;fontColor=#808080;fontStyle=1;rounded=1;sketch=1;" parent="W0rM-MDbJ5D4AVO0Bxm_-1" vertex="1">
                    <mxGeometry x="120" y="470" width="40" height="160" as="geometry"/>
                </mxCell>
                <mxCell id="W0rM-MDbJ5D4AVO0Bxm_-28" value="E" style="whiteSpace=wrap;html=1;strokeColor=#001DBC;fillColor=#0050ef;fontFamily=Courier New;fontColor=#808080;fontStyle=1;rounded=1;sketch=1;" parent="W0rM-MDbJ5D4AVO0Bxm_-1" vertex="1">
                    <mxGeometry x="80" y="470" width="40" height="160" as="geometry"/>
                </mxCell>
                <mxCell id="ZptFQKRL4hzS_mphF5Ht-0" value="" style="shape=flexArrow;endArrow=classic;html=1;fontFamily=Courier New;fontColor=#808080;strokeColor=#6F0000;width=52;endSize=8;curved=1;fillColor=#a20025;sketch=1;" parent="W0rM-MDbJ5D4AVO0Bxm_-1" edge="1">
                    <mxGeometry width="50" height="50" relative="1" as="geometry">
                        <mxPoint x="810" y="330" as="sourcePoint"/>
                        <mxPoint x="850" y="330" as="targetPoint"/>
                    </mxGeometry>
                </mxCell>
                <mxCell id="ZptFQKRL4hzS_mphF5Ht-1" value="" style="shape=flexArrow;endArrow=classic;html=1;fontFamily=Courier New;fontColor=#808080;strokeColor=#6F0000;width=52;endSize=8;curved=1;sketch=1;fillColor=#a20025;" parent="W0rM-MDbJ5D4AVO0Bxm_-1" edge="1">
                    <mxGeometry width="50" height="50" relative="1" as="geometry">
                        <mxPoint x="600" y="330" as="sourcePoint"/>
                        <mxPoint x="640" y="330" as="targetPoint"/>
                    </mxGeometry>
                </mxCell>
                <mxCell id="ZptFQKRL4hzS_mphF5Ht-2" value="" style="shape=flexArrow;endArrow=classic;html=1;fontFamily=Courier New;fontColor=#808080;strokeColor=#6F0000;width=52;endSize=8;curved=1;sketch=1;fillColor=#a20025;" parent="W0rM-MDbJ5D4AVO0Bxm_-1" edge="1">
                    <mxGeometry width="50" height="50" relative="1" as="geometry">
                        <mxPoint x="390" y="330" as="sourcePoint"/>
                        <mxPoint x="430" y="330" as="targetPoint"/>
                    </mxGeometry>
                </mxCell>
                <mxCell id="ZptFQKRL4hzS_mphF5Ht-3" value="" style="shape=flexArrow;endArrow=classic;html=1;fontFamily=Courier New;fontColor=#808080;strokeColor=#6F0000;width=52;endSize=8;curved=1;sketch=1;fillColor=#a20025;" parent="W0rM-MDbJ5D4AVO0Bxm_-1" edge="1">
                    <mxGeometry width="50" height="50" relative="1" as="geometry">
                        <mxPoint x="220" y="330" as="sourcePoint"/>
                        <mxPoint x="260" y="330" as="targetPoint"/>
                    </mxGeometry>
                </mxCell>
            </root>
        </mxGraphModel>
    </diagram>
    <diagram id="3kXAWhVCvX7wtt8HvD0j" name="0.0.4">
        <mxGraphModel dx="1074" dy="790" grid="1" gridSize="10" guides="1" tooltips="1" connect="1" arrows="1" fold="1" page="1" pageScale="1" pageWidth="1100" pageHeight="850" math="0" shadow="0">
            <root>
                <mxCell id="fLSRTXFH1fcSwHrKiy_E-0"/>
                <mxCell id="fLSRTXFH1fcSwHrKiy_E-1" parent="fLSRTXFH1fcSwHrKiy_E-0"/>
                <mxCell id="tHzvTpeFHNqKRsSb1RSv-12" value="" style="ellipse;whiteSpace=wrap;html=1;aspect=fixed;rounded=1;sketch=1;fillColor=#a20025;fontColor=#ffffff;strokeColor=#8F8F8F;fontFamily=Courier New;fontStyle=1" parent="fLSRTXFH1fcSwHrKiy_E-1" vertex="1">
                    <mxGeometry x="750" y="280" width="340" height="340" as="geometry"/>
                </mxCell>
                <mxCell id="tHzvTpeFHNqKRsSb1RSv-10" style="edgeStyle=orthogonalEdgeStyle;curved=1;rounded=1;sketch=1;orthogonalLoop=1;jettySize=auto;html=1;strokeColor=#8F8F8F;fontFamily=Courier New;fontStyle=1" parent="fLSRTXFH1fcSwHrKiy_E-1" source="tHzvTpeFHNqKRsSb1RSv-6" target="tHzvTpeFHNqKRsSb1RSv-7" edge="1">
                    <mxGeometry relative="1" as="geometry"/>
                </mxCell>
                <mxCell id="tHzvTpeFHNqKRsSb1RSv-11" value="" style="edgeStyle=orthogonalEdgeStyle;curved=1;rounded=1;sketch=1;orthogonalLoop=1;jettySize=auto;html=1;strokeColor=#8F8F8F;fontFamily=Courier New;fontStyle=1" parent="fLSRTXFH1fcSwHrKiy_E-1" source="tHzvTpeFHNqKRsSb1RSv-6" target="tHzvTpeFHNqKRsSb1RSv-8" edge="1">
                    <mxGeometry relative="1" as="geometry"/>
                </mxCell>
                <mxCell id="tHzvTpeFHNqKRsSb1RSv-6" value="D" style="ellipse;whiteSpace=wrap;html=1;aspect=fixed;sketch=1;rounded=1;fillColor=#008a00;fontColor=#ffffff;strokeColor=#8F8F8F;fontFamily=Courier New;fontStyle=1" parent="fLSRTXFH1fcSwHrKiy_E-1" vertex="1">
                    <mxGeometry x="880" y="410" width="80" height="80" as="geometry"/>
                </mxCell>
                <mxCell id="tHzvTpeFHNqKRsSb1RSv-7" value="U" style="ellipse;whiteSpace=wrap;html=1;aspect=fixed;sketch=1;rounded=1;fillColor=#a20025;fontColor=#ffffff;strokeColor=#8F8F8F;fontFamily=Courier New;fontStyle=1" parent="fLSRTXFH1fcSwHrKiy_E-1" vertex="1">
                    <mxGeometry x="990" y="410" width="80" height="80" as="geometry"/>
                </mxCell>
                <mxCell id="tHzvTpeFHNqKRsSb1RSv-8" value="U" style="ellipse;whiteSpace=wrap;html=1;aspect=fixed;sketch=1;rounded=1;fillColor=#0050ef;fontColor=#ffffff;strokeColor=#8F8F8F;fontFamily=Courier New;fontStyle=1" parent="fLSRTXFH1fcSwHrKiy_E-1" vertex="1">
                    <mxGeometry x="770" y="410" width="80" height="80" as="geometry"/>
                </mxCell>
                <mxCell id="tHzvTpeFHNqKRsSb1RSv-21" style="edgeStyle=orthogonalEdgeStyle;curved=1;rounded=1;sketch=1;orthogonalLoop=1;jettySize=auto;html=1;entryX=0;entryY=0.5;entryDx=0;entryDy=0;strokeColor=#8F8F8F;fontFamily=Courier New;fontStyle=1" parent="fLSRTXFH1fcSwHrKiy_E-1" source="tHzvTpeFHNqKRsSb1RSv-13" target="tHzvTpeFHNqKRsSb1RSv-12" edge="1">
                    <mxGeometry relative="1" as="geometry"/>
                </mxCell>
                <mxCell id="tHzvTpeFHNqKRsSb1RSv-13" value="" style="ellipse;whiteSpace=wrap;html=1;aspect=fixed;rounded=1;sketch=1;fillColor=#008a00;fontColor=#ffffff;strokeColor=#8F8F8F;fontFamily=Courier New;fontStyle=1" parent="fLSRTXFH1fcSwHrKiy_E-1" vertex="1">
                    <mxGeometry x="390" y="280" width="340" height="340" as="geometry"/>
                </mxCell>
                <mxCell id="tHzvTpeFHNqKRsSb1RSv-14" style="edgeStyle=orthogonalEdgeStyle;curved=1;rounded=1;sketch=1;orthogonalLoop=1;jettySize=auto;html=1;strokeColor=#8F8F8F;fontFamily=Courier New;fontStyle=1" parent="fLSRTXFH1fcSwHrKiy_E-1" source="tHzvTpeFHNqKRsSb1RSv-16" target="tHzvTpeFHNqKRsSb1RSv-17" edge="1">
                    <mxGeometry relative="1" as="geometry"/>
                </mxCell>
                <mxCell id="tHzvTpeFHNqKRsSb1RSv-15" value="" style="edgeStyle=orthogonalEdgeStyle;curved=1;rounded=1;sketch=1;orthogonalLoop=1;jettySize=auto;html=1;strokeColor=#8F8F8F;fontFamily=Courier New;fontStyle=1" parent="fLSRTXFH1fcSwHrKiy_E-1" source="tHzvTpeFHNqKRsSb1RSv-16" target="tHzvTpeFHNqKRsSb1RSv-18" edge="1">
                    <mxGeometry relative="1" as="geometry"/>
                </mxCell>
                <mxCell id="tHzvTpeFHNqKRsSb1RSv-16" value="U" style="ellipse;whiteSpace=wrap;html=1;aspect=fixed;sketch=1;rounded=1;fillColor=#008a00;fontColor=#ffffff;strokeColor=#8F8F8F;fontFamily=Courier New;fontStyle=1" parent="fLSRTXFH1fcSwHrKiy_E-1" vertex="1">
                    <mxGeometry x="520" y="410" width="80" height="80" as="geometry"/>
                </mxCell>
                <mxCell id="tHzvTpeFHNqKRsSb1RSv-17" value="D" style="ellipse;whiteSpace=wrap;html=1;aspect=fixed;sketch=1;rounded=1;fillColor=#a20025;fontColor=#ffffff;strokeColor=#8F8F8F;fontFamily=Courier New;fontStyle=1" parent="fLSRTXFH1fcSwHrKiy_E-1" vertex="1">
                    <mxGeometry x="630" y="410" width="80" height="80" as="geometry"/>
                </mxCell>
                <mxCell id="tHzvTpeFHNqKRsSb1RSv-18" value="D" style="ellipse;whiteSpace=wrap;html=1;aspect=fixed;sketch=1;rounded=1;fillColor=#0050ef;fontColor=#ffffff;strokeColor=#8F8F8F;fontFamily=Courier New;fontStyle=1" parent="fLSRTXFH1fcSwHrKiy_E-1" vertex="1">
                    <mxGeometry x="410" y="410" width="80" height="80" as="geometry"/>
                </mxCell>
                <mxCell id="tHzvTpeFHNqKRsSb1RSv-28" style="edgeStyle=orthogonalEdgeStyle;curved=1;rounded=1;sketch=1;orthogonalLoop=1;jettySize=auto;html=1;strokeColor=#8F8F8F;fontFamily=Courier New;fontStyle=1" parent="fLSRTXFH1fcSwHrKiy_E-1" source="tHzvTpeFHNqKRsSb1RSv-22" target="tHzvTpeFHNqKRsSb1RSv-13" edge="1">
                    <mxGeometry relative="1" as="geometry"/>
                </mxCell>
                <mxCell id="tHzvTpeFHNqKRsSb1RSv-22" value="" style="ellipse;whiteSpace=wrap;html=1;aspect=fixed;rounded=1;sketch=1;fillColor=#0050ef;fontColor=#ffffff;strokeColor=#8F8F8F;fontFamily=Courier New;fontStyle=1" parent="fLSRTXFH1fcSwHrKiy_E-1" vertex="1">
                    <mxGeometry x="20" y="280" width="340" height="340" as="geometry"/>
                </mxCell>
                <mxCell id="tHzvTpeFHNqKRsSb1RSv-29" value="ELETTRONE" style="text;html=1;fillColor=none;align=center;verticalAlign=middle;whiteSpace=wrap;rounded=0;sketch=1;fontColor=#8F8F8F;fontSize=23;fontFamily=Courier New;fontStyle=1" parent="fLSRTXFH1fcSwHrKiy_E-1" vertex="1">
                    <mxGeometry x="170" y="670" width="40" height="20" as="geometry"/>
                </mxCell>
                <mxCell id="tHzvTpeFHNqKRsSb1RSv-30" value="NEUTRONE" style="text;html=1;fillColor=none;align=center;verticalAlign=middle;whiteSpace=wrap;rounded=0;sketch=1;fontColor=#8F8F8F;fontSize=23;fontFamily=Courier New;fontStyle=1" parent="fLSRTXFH1fcSwHrKiy_E-1" vertex="1">
                    <mxGeometry x="550" y="670" width="40" height="20" as="geometry"/>
                </mxCell>
                <mxCell id="tHzvTpeFHNqKRsSb1RSv-31" value="PROTONE" style="text;html=1;fillColor=none;align=center;verticalAlign=middle;whiteSpace=wrap;rounded=0;sketch=1;fontColor=#8F8F8F;fontSize=23;fontFamily=Courier New;fontStyle=1" parent="fLSRTXFH1fcSwHrKiy_E-1" vertex="1">
                    <mxGeometry x="900" y="670" width="40" height="20" as="geometry"/>
                </mxCell>
                <mxCell id="tHzvTpeFHNqKRsSb1RSv-32" style="edgeStyle=orthogonalEdgeStyle;curved=1;rounded=1;sketch=1;orthogonalLoop=1;jettySize=auto;html=1;strokeColor=#8F8F8F;fontFamily=Courier New;fontStyle=1" parent="fLSRTXFH1fcSwHrKiy_E-1" source="tHzvTpeFHNqKRsSb1RSv-34" target="tHzvTpeFHNqKRsSb1RSv-35" edge="1">
                    <mxGeometry relative="1" as="geometry"/>
                </mxCell>
                <mxCell id="tHzvTpeFHNqKRsSb1RSv-33" value="" style="edgeStyle=orthogonalEdgeStyle;curved=1;rounded=1;sketch=1;orthogonalLoop=1;jettySize=auto;html=1;strokeColor=#8F8F8F;fontFamily=Courier New;fontStyle=1" parent="fLSRTXFH1fcSwHrKiy_E-1" source="tHzvTpeFHNqKRsSb1RSv-34" target="tHzvTpeFHNqKRsSb1RSv-36" edge="1">
                    <mxGeometry relative="1" as="geometry"/>
                </mxCell>
                <mxCell id="tHzvTpeFHNqKRsSb1RSv-34" value="MASSA" style="ellipse;whiteSpace=wrap;html=1;aspect=fixed;sketch=1;rounded=1;fillColor=#008a00;fontColor=#ffffff;strokeColor=#8F8F8F;fontFamily=Courier New;fontStyle=1" parent="fLSRTXFH1fcSwHrKiy_E-1" vertex="1">
                    <mxGeometry x="150" y="410" width="80" height="80" as="geometry"/>
                </mxCell>
                <mxCell id="tHzvTpeFHNqKRsSb1RSv-35" value="CARICA" style="ellipse;whiteSpace=wrap;html=1;aspect=fixed;sketch=1;rounded=1;fillColor=#a20025;fontColor=#ffffff;strokeColor=#8F8F8F;fontFamily=Courier New;fontStyle=1" parent="fLSRTXFH1fcSwHrKiy_E-1" vertex="1">
                    <mxGeometry x="260" y="410" width="80" height="80" as="geometry"/>
                </mxCell>
                <mxCell id="tHzvTpeFHNqKRsSb1RSv-36" value="MOMENTO ANGOLARE" style="ellipse;whiteSpace=wrap;html=1;aspect=fixed;sketch=1;rounded=1;fillColor=#0050ef;fontColor=#ffffff;strokeColor=#8F8F8F;fontFamily=Courier New;fontStyle=1" parent="fLSRTXFH1fcSwHrKiy_E-1" vertex="1">
                    <mxGeometry x="40" y="410" width="80" height="80" as="geometry"/>
                </mxCell>
            </root>
        </mxGraphModel>
    </diagram>
    <diagram name="0.0.4 2" id="BPuhP2UYqeS_asFMk0QZ">
        <mxGraphModel dx="1074" dy="790" grid="1" gridSize="10" guides="1" tooltips="1" connect="1" arrows="1" fold="1" page="1" pageScale="1" pageWidth="1100" pageHeight="850" math="0" shadow="0">
            <root>
                <mxCell id="rGN0Hdvx375b36EXyA7g-0"/>
                <mxCell id="rGN0Hdvx375b36EXyA7g-1" parent="rGN0Hdvx375b36EXyA7g-0"/>
                <mxCell id="rGN0Hdvx375b36EXyA7g-2" value="SOLE" style="ellipse;whiteSpace=wrap;html=1;aspect=fixed;rounded=1;sketch=1;fillColor=#a20025;strokeColor=#8F8F8F;fontFamily=Courier New;fontStyle=1;fontSize=35;fontColor=#8F8F8F;" parent="rGN0Hdvx375b36EXyA7g-1" vertex="1">
                    <mxGeometry x="750" y="280" width="340" height="340" as="geometry"/>
                </mxCell>
                <mxCell id="rGN0Hdvx375b36EXyA7g-8" style="edgeStyle=orthogonalEdgeStyle;curved=1;rounded=1;sketch=1;orthogonalLoop=1;jettySize=auto;html=1;entryX=0;entryY=0.5;entryDx=0;entryDy=0;strokeColor=#8F8F8F;fontFamily=Courier New;fontStyle=1;fontColor=#8F8F8F;" parent="rGN0Hdvx375b36EXyA7g-1" source="rGN0Hdvx375b36EXyA7g-9" target="rGN0Hdvx375b36EXyA7g-2" edge="1">
                    <mxGeometry relative="1" as="geometry"/>
                </mxCell>
                <mxCell id="rGN0Hdvx375b36EXyA7g-9" value="&lt;font style=&quot;font-size: 35px&quot;&gt;PIANETA&lt;/font&gt;" style="ellipse;whiteSpace=wrap;html=1;aspect=fixed;rounded=1;sketch=1;fillColor=#008a00;strokeColor=#8F8F8F;fontFamily=Courier New;fontStyle=1;fontSize=25;fontColor=#8F8F8F;" parent="rGN0Hdvx375b36EXyA7g-1" vertex="1">
                    <mxGeometry x="390" y="280" width="340" height="340" as="geometry"/>
                </mxCell>
                <mxCell id="rGN0Hdvx375b36EXyA7g-15" style="edgeStyle=orthogonalEdgeStyle;curved=1;rounded=1;sketch=1;orthogonalLoop=1;jettySize=auto;html=1;strokeColor=#8F8F8F;fontFamily=Courier New;fontStyle=1;fontColor=#8F8F8F;" parent="rGN0Hdvx375b36EXyA7g-1" source="rGN0Hdvx375b36EXyA7g-16" target="rGN0Hdvx375b36EXyA7g-9" edge="1">
                    <mxGeometry relative="1" as="geometry"/>
                </mxCell>
                <mxCell id="rGN0Hdvx375b36EXyA7g-16" value="&lt;font style=&quot;font-size: 35px&quot;&gt;LUNA&lt;/font&gt;" style="ellipse;whiteSpace=wrap;html=1;aspect=fixed;rounded=1;sketch=1;fillColor=#0050ef;strokeColor=#8F8F8F;fontFamily=Courier New;fontStyle=1;fontColor=#8F8F8F;" parent="rGN0Hdvx375b36EXyA7g-1" vertex="1">
                    <mxGeometry x="20" y="280" width="340" height="340" as="geometry"/>
                </mxCell>
            </root>
        </mxGraphModel>
    </diagram>
    <diagram name="0.0.5" id="KFiqBC2vEqDhtbo2sA6c">
        <mxGraphModel dx="1074" dy="1640" grid="1" gridSize="10" guides="1" tooltips="1" connect="1" arrows="1" fold="1" page="1" pageScale="1" pageWidth="1100" pageHeight="850" math="0" shadow="0">
            <root>
                <mxCell id="fW6Y9jT2kXcSiZ-Nmt8K-0"/>
                <mxCell id="fW6Y9jT2kXcSiZ-Nmt8K-1" parent="fW6Y9jT2kXcSiZ-Nmt8K-0"/>
                <mxCell id="fW6Y9jT2kXcSiZ-Nmt8K-19" value="" style="rounded=0;whiteSpace=wrap;html=1;sketch=1;fontFamily=Courier New;fontSize=20;fontColor=#8F8F8F;strokeColor=#8F8F8F;fillColor=none;" parent="fW6Y9jT2kXcSiZ-Nmt8K-1" vertex="1">
                    <mxGeometry x="37" y="820" width="570" height="220" as="geometry"/>
                </mxCell>
                <mxCell id="fW6Y9jT2kXcSiZ-Nmt8K-12" value="" style="rounded=0;whiteSpace=wrap;html=1;sketch=1;fontFamily=Courier New;fontSize=20;fontColor=#8F8F8F;strokeColor=#8F8F8F;fillColor=none;" parent="fW6Y9jT2kXcSiZ-Nmt8K-1" vertex="1">
                    <mxGeometry x="165" y="420" width="780" height="285" as="geometry"/>
                </mxCell>
                <mxCell id="fW6Y9jT2kXcSiZ-Nmt8K-2" value="BROKER&lt;br&gt;(DIPENDENZA)" style="ellipse;whiteSpace=wrap;html=1;aspect=fixed;rounded=1;sketch=1;fillColor=#a20025;strokeColor=#8F8F8F;fontFamily=Courier New;fontStyle=1;fontSize=35;fontColor=#8F8F8F;" parent="fW6Y9jT2kXcSiZ-Nmt8K-1" vertex="1">
                    <mxGeometry x="745" y="-30" width="340" height="340" as="geometry"/>
                </mxCell>
                <mxCell id="fW6Y9jT2kXcSiZ-Nmt8K-3" style="edgeStyle=orthogonalEdgeStyle;curved=1;rounded=1;sketch=1;orthogonalLoop=1;jettySize=auto;html=1;entryX=0;entryY=0.5;entryDx=0;entryDy=0;strokeColor=#8F8F8F;fontFamily=Courier New;fontStyle=1;fontColor=#8F8F8F;" parent="fW6Y9jT2kXcSiZ-Nmt8K-1" source="fW6Y9jT2kXcSiZ-Nmt8K-4" target="fW6Y9jT2kXcSiZ-Nmt8K-2" edge="1">
                    <mxGeometry relative="1" as="geometry"/>
                </mxCell>
                <mxCell id="fW6Y9jT2kXcSiZ-Nmt8K-13" style="edgeStyle=orthogonalEdgeStyle;curved=1;rounded=1;sketch=1;orthogonalLoop=1;jettySize=auto;html=1;fontFamily=Courier New;fontSize=20;fontColor=#8F8F8F;strokeColor=#8F8F8F;" parent="fW6Y9jT2kXcSiZ-Nmt8K-1" source="fW6Y9jT2kXcSiZ-Nmt8K-4" target="fW6Y9jT2kXcSiZ-Nmt8K-12" edge="1">
                    <mxGeometry relative="1" as="geometry"/>
                </mxCell>
                <mxCell id="fW6Y9jT2kXcSiZ-Nmt8K-4" value="&lt;font style=&quot;font-size: 35px&quot;&gt;SERVIZIO&lt;br&gt;(OBIETTIVO)&lt;br&gt;&lt;/font&gt;" style="ellipse;whiteSpace=wrap;html=1;aspect=fixed;rounded=1;sketch=1;fillColor=#008a00;strokeColor=#8F8F8F;fontFamily=Courier New;fontStyle=1;fontSize=25;fontColor=#8F8F8F;" parent="fW6Y9jT2kXcSiZ-Nmt8K-1" vertex="1">
                    <mxGeometry x="385" y="-30" width="340" height="340" as="geometry"/>
                </mxCell>
                <mxCell id="fW6Y9jT2kXcSiZ-Nmt8K-5" style="edgeStyle=orthogonalEdgeStyle;curved=1;rounded=1;sketch=1;orthogonalLoop=1;jettySize=auto;html=1;strokeColor=#8F8F8F;fontFamily=Courier New;fontStyle=1;fontColor=#8F8F8F;" parent="fW6Y9jT2kXcSiZ-Nmt8K-1" source="fW6Y9jT2kXcSiZ-Nmt8K-6" target="fW6Y9jT2kXcSiZ-Nmt8K-4" edge="1">
                    <mxGeometry relative="1" as="geometry"/>
                </mxCell>
                <mxCell id="fW6Y9jT2kXcSiZ-Nmt8K-6" value="&lt;font style=&quot;font-size: 35px&quot;&gt;CONTROLLER&lt;br&gt;(ESPOSIZIONE)&lt;br&gt;&lt;/font&gt;" style="ellipse;whiteSpace=wrap;html=1;aspect=fixed;rounded=1;sketch=1;fillColor=#0050ef;strokeColor=#8F8F8F;fontFamily=Courier New;fontStyle=1;fontColor=#8F8F8F;" parent="fW6Y9jT2kXcSiZ-Nmt8K-1" vertex="1">
                    <mxGeometry x="15" y="-30" width="340" height="340" as="geometry"/>
                </mxCell>
                <mxCell id="fW6Y9jT2kXcSiZ-Nmt8K-7" value="INTEGRAZIONE" style="ellipse;whiteSpace=wrap;html=1;aspect=fixed;rounded=1;sketch=1;fillColor=#a20025;strokeColor=#8F8F8F;fontFamily=Courier New;fontStyle=1;fontSize=20;fontColor=#8F8F8F;" parent="fW6Y9jT2kXcSiZ-Nmt8K-1" vertex="1">
                    <mxGeometry x="715" y="470" width="190" height="190" as="geometry"/>
                </mxCell>
                <mxCell id="fW6Y9jT2kXcSiZ-Nmt8K-11" style="edgeStyle=orthogonalEdgeStyle;curved=1;rounded=1;sketch=1;orthogonalLoop=1;jettySize=auto;html=1;fontFamily=Courier New;fontSize=20;fontColor=#8F8F8F;strokeColor=#8F8F8F;" parent="fW6Y9jT2kXcSiZ-Nmt8K-1" source="fW6Y9jT2kXcSiZ-Nmt8K-8" target="fW6Y9jT2kXcSiZ-Nmt8K-7" edge="1">
                    <mxGeometry relative="1" as="geometry"/>
                </mxCell>
                <mxCell id="fW6Y9jT2kXcSiZ-Nmt8K-8" value="&lt;font&gt;&lt;font style=&quot;font-size: 20px&quot;&gt;PROCESSO&lt;/font&gt;&lt;br&gt;&lt;/font&gt;" style="ellipse;whiteSpace=wrap;html=1;aspect=fixed;rounded=1;sketch=1;fillColor=#008a00;strokeColor=#8F8F8F;fontFamily=Courier New;fontStyle=1;fontSize=25;fontColor=#8F8F8F;" parent="fW6Y9jT2kXcSiZ-Nmt8K-1" vertex="1">
                    <mxGeometry x="465" y="470" width="190" height="190" as="geometry"/>
                </mxCell>
                <mxCell id="fW6Y9jT2kXcSiZ-Nmt8K-10" style="edgeStyle=orthogonalEdgeStyle;curved=1;rounded=1;sketch=1;orthogonalLoop=1;jettySize=auto;html=1;fontFamily=Courier New;fontSize=20;fontColor=#8F8F8F;strokeColor=#8F8F8F;" parent="fW6Y9jT2kXcSiZ-Nmt8K-1" source="fW6Y9jT2kXcSiZ-Nmt8K-9" target="fW6Y9jT2kXcSiZ-Nmt8K-8" edge="1">
                    <mxGeometry relative="1" as="geometry"/>
                </mxCell>
                <mxCell id="fW6Y9jT2kXcSiZ-Nmt8K-20" style="edgeStyle=orthogonalEdgeStyle;curved=1;rounded=1;sketch=1;orthogonalLoop=1;jettySize=auto;html=1;entryX=0.489;entryY=-0.009;entryDx=0;entryDy=0;entryPerimeter=0;fontFamily=Courier New;fontSize=20;fontColor=#8F8F8F;strokeColor=#8F8F8F;" parent="fW6Y9jT2kXcSiZ-Nmt8K-1" source="fW6Y9jT2kXcSiZ-Nmt8K-9" target="fW6Y9jT2kXcSiZ-Nmt8K-19" edge="1">
                    <mxGeometry relative="1" as="geometry"/>
                </mxCell>
                <mxCell id="fW6Y9jT2kXcSiZ-Nmt8K-9" value="&lt;font&gt;&lt;font style=&quot;font-size: 20px&quot;&gt;VALIDAZIONE&lt;/font&gt;&lt;br&gt;&lt;/font&gt;" style="ellipse;whiteSpace=wrap;html=1;aspect=fixed;rounded=1;sketch=1;fillColor=#0050ef;strokeColor=#8F8F8F;fontFamily=Courier New;fontStyle=1;fontColor=#8F8F8F;" parent="fW6Y9jT2kXcSiZ-Nmt8K-1" vertex="1">
                    <mxGeometry x="215" y="465" width="200" height="200" as="geometry"/>
                </mxCell>
                <mxCell id="fW6Y9jT2kXcSiZ-Nmt8K-14" value="ESTERNA" style="ellipse;whiteSpace=wrap;html=1;aspect=fixed;rounded=1;sketch=1;fillColor=#a20025;strokeColor=#8F8F8F;fontFamily=Courier New;fontStyle=1;fontSize=20;fontColor=#8F8F8F;" parent="fW6Y9jT2kXcSiZ-Nmt8K-1" vertex="1">
                    <mxGeometry x="422" y="870" width="120" height="120" as="geometry"/>
                </mxCell>
                <mxCell id="fW6Y9jT2kXcSiZ-Nmt8K-18" style="edgeStyle=orthogonalEdgeStyle;curved=1;rounded=1;sketch=1;orthogonalLoop=1;jettySize=auto;html=1;fontFamily=Courier New;fontSize=20;fontColor=#8F8F8F;strokeColor=#8F8F8F;" parent="fW6Y9jT2kXcSiZ-Nmt8K-1" source="fW6Y9jT2kXcSiZ-Nmt8K-15" target="fW6Y9jT2kXcSiZ-Nmt8K-14" edge="1">
                    <mxGeometry relative="1" as="geometry"/>
                </mxCell>
                <mxCell id="fW6Y9jT2kXcSiZ-Nmt8K-15" value="&lt;font&gt;&lt;font style=&quot;font-size: 20px&quot;&gt;LOGICA&lt;/font&gt;&lt;br&gt;&lt;/font&gt;" style="ellipse;whiteSpace=wrap;html=1;aspect=fixed;rounded=1;sketch=1;fillColor=#008a00;strokeColor=#8F8F8F;fontFamily=Courier New;fontStyle=1;fontSize=25;fontColor=#8F8F8F;" parent="fW6Y9jT2kXcSiZ-Nmt8K-1" vertex="1">
                    <mxGeometry x="252" y="870" width="120" height="120" as="geometry"/>
                </mxCell>
                <mxCell id="fW6Y9jT2kXcSiZ-Nmt8K-17" style="edgeStyle=orthogonalEdgeStyle;curved=1;rounded=1;sketch=1;orthogonalLoop=1;jettySize=auto;html=1;fontFamily=Courier New;fontSize=20;fontColor=#8F8F8F;strokeColor=#8F8F8F;" parent="fW6Y9jT2kXcSiZ-Nmt8K-1" source="fW6Y9jT2kXcSiZ-Nmt8K-16" target="fW6Y9jT2kXcSiZ-Nmt8K-15" edge="1">
                    <mxGeometry relative="1" as="geometry"/>
                </mxCell>
                <mxCell id="fW6Y9jT2kXcSiZ-Nmt8K-16" value="&lt;font&gt;&lt;font style=&quot;font-size: 20px&quot;&gt;STRUTTURALE&lt;/font&gt;&lt;br&gt;&lt;/font&gt;" style="ellipse;whiteSpace=wrap;html=1;aspect=fixed;rounded=1;sketch=1;fillColor=#0050ef;strokeColor=#8F8F8F;fontFamily=Courier New;fontStyle=1;fontColor=#8F8F8F;" parent="fW6Y9jT2kXcSiZ-Nmt8K-1" vertex="1">
                    <mxGeometry x="77" y="865" width="130" height="130" as="geometry"/>
                </mxCell>
            </root>
        </mxGraphModel>
    </diagram>
    <diagram name="0.0.5 3" id="Mhk29zlba1toDi8wMus7">
        <mxGraphModel dx="2890" dy="2167" grid="1" gridSize="10" guides="1" tooltips="1" connect="1" arrows="1" fold="1" page="1" pageScale="1" pageWidth="1100" pageHeight="850" math="0" shadow="0">
            <root>
                <mxCell id="oFzkff3jUH4xU8nQMEI9-0"/>
                <mxCell id="oFzkff3jUH4xU8nQMEI9-1" parent="oFzkff3jUH4xU8nQMEI9-0"/>
                <mxCell id="oFzkff3jUH4xU8nQMEI9-4" value="MICROSEVIZIO AMBASCIATORE" style="ellipse;whiteSpace=wrap;html=1;aspect=fixed;rounded=1;sketch=1;fillColor=#a20025;strokeColor=#8F8F8F;fontFamily=Courier New;fontStyle=1;fontSize=35;fontColor=#8F8F8F;" parent="oFzkff3jUH4xU8nQMEI9-1" vertex="1">
                    <mxGeometry x="745" y="-270" width="340" height="340" as="geometry"/>
                </mxCell>
                <mxCell id="oFzkff3jUH4xU8nQMEI9-5" style="edgeStyle=orthogonalEdgeStyle;curved=1;rounded=1;sketch=1;orthogonalLoop=1;jettySize=auto;html=1;entryX=0;entryY=0.5;entryDx=0;entryDy=0;strokeColor=#8F8F8F;fontFamily=Courier New;fontStyle=1;fontColor=#8F8F8F;" parent="oFzkff3jUH4xU8nQMEI9-1" source="oFzkff3jUH4xU8nQMEI9-7" target="oFzkff3jUH4xU8nQMEI9-4" edge="1">
                    <mxGeometry relative="1" as="geometry"/>
                </mxCell>
                <mxCell id="oFzkff3jUH4xU8nQMEI9-22" style="edgeStyle=orthogonalEdgeStyle;curved=1;rounded=1;sketch=1;orthogonalLoop=1;jettySize=auto;html=1;fontFamily=Courier New;fontSize=20;fontColor=#8F8F8F;strokeColor=#8F8F8F;" parent="oFzkff3jUH4xU8nQMEI9-1" source="oFzkff3jUH4xU8nQMEI9-7" target="oFzkff3jUH4xU8nQMEI9-21" edge="1">
                    <mxGeometry relative="1" as="geometry"/>
                </mxCell>
                <mxCell id="oFzkff3jUH4xU8nQMEI9-7" value="&lt;font style=&quot;font-size: 35px&quot;&gt;MICROSERVIZIO DI ORCHESTRAZIONE&lt;br&gt;&lt;/font&gt;" style="ellipse;whiteSpace=wrap;html=1;aspect=fixed;rounded=1;sketch=1;fillColor=#008a00;strokeColor=#8F8F8F;fontFamily=Courier New;fontStyle=1;fontSize=25;fontColor=#8F8F8F;" parent="oFzkff3jUH4xU8nQMEI9-1" vertex="1">
                    <mxGeometry x="285" y="10" width="340" height="340" as="geometry"/>
                </mxCell>
                <mxCell id="oFzkff3jUH4xU8nQMEI9-8" style="edgeStyle=orthogonalEdgeStyle;curved=1;rounded=1;sketch=1;orthogonalLoop=1;jettySize=auto;html=1;strokeColor=#8F8F8F;fontFamily=Courier New;fontStyle=1;fontColor=#8F8F8F;" parent="oFzkff3jUH4xU8nQMEI9-1" source="oFzkff3jUH4xU8nQMEI9-9" target="oFzkff3jUH4xU8nQMEI9-7" edge="1">
                    <mxGeometry relative="1" as="geometry"/>
                </mxCell>
                <mxCell id="oFzkff3jUH4xU8nQMEI9-9" value="&lt;font style=&quot;font-size: 35px&quot;&gt;CUSTODE&lt;br&gt;&lt;/font&gt;" style="ellipse;whiteSpace=wrap;html=1;aspect=fixed;rounded=1;sketch=1;fillColor=#0050ef;strokeColor=#8F8F8F;fontFamily=Courier New;fontStyle=1;fontColor=#8F8F8F;" parent="oFzkff3jUH4xU8nQMEI9-1" vertex="1">
                    <mxGeometry x="-150" y="10" width="340" height="340" as="geometry"/>
                </mxCell>
                <mxCell id="oFzkff3jUH4xU8nQMEI9-21" value="MICROSEVIZIO AMBASCIATORE" style="ellipse;whiteSpace=wrap;html=1;aspect=fixed;rounded=1;sketch=1;fillColor=#a20025;strokeColor=#8F8F8F;fontFamily=Courier New;fontStyle=1;fontSize=35;fontColor=#8F8F8F;" parent="oFzkff3jUH4xU8nQMEI9-1" vertex="1">
                    <mxGeometry x="745" y="280" width="340" height="340" as="geometry"/>
                </mxCell>
            </root>
        </mxGraphModel>
    </diagram>
</mxfile>